<?xml version="1.0" encoding="UTF-8"?>
<svg width="50px" height="50px" viewBox="0 0 50 50" version="1.1" xmlns="http://www.w3.org/2000/svg" xmlns:xlink="http://www.w3.org/1999/xlink">
    <title>验证类型</title>
    <g id="页面-1" stroke="none" stroke-width="1" fill="none" fill-rule="evenodd">
        <g id="四重奏官网-首页" transform="translate(-453.000000, -2725.000000)" fill-rule="nonzero">
            <g id="网站备案" transform="translate(0.000000, 2494.000000)">
                <g id="编组-15" transform="translate(360.500000, 207.000000)">
                    <g id="编组-14" transform="translate(68.500000, 0.000000)">
                        <g id="验证类型" transform="translate(24.000000, 24.000000)">
                            <rect id="矩形" fill="#000000" opacity="0" x="0" y="0" width="50" height="50"></rect>
                            <path d="M25.1857375,22.0255164 L41.0011812,22.0255164 C41.5517496,22.0255164 42,22.472661 42,23.0218712 C42,23.5710814 41.5517496,24.018226 41.0011812,24.018226 L25.1857375,24.018226 C24.6351691,24.018226 24.1869186,23.5710814 24.1869186,23.0218712 C24.1869186,22.472661 24.6351691,22.0255164 25.1857375,22.0255164 Z M25.1857375,29.9866343 L41.0011812,29.9866343 C41.5517496,29.9866343 42,30.4337789 42,30.9829891 C42,31.5321993 41.5517496,31.9793439 41.0011812,31.9793439 L25.1857375,31.9793439 C24.6351691,31.9793439 24.1869186,31.5321993 24.1869186,30.9829891 C24.1869186,30.4289186 24.6351691,29.9866343 25.1857375,29.9866343 Z M25.1857375,37.9428919 L41.0011812,37.9428919 C41.5517496,37.9428919 42,38.3900365 42,38.9392467 C42,39.4884569 41.5517496,39.9356015 41.0011812,39.9356015 L25.1857375,39.9356015 C24.6351691,39.9356015 24.1869186,39.4884569 24.1869186,38.9392467 C24.1869186,38.3900365 24.6351691,37.9428919 25.1857375,37.9428919 Z M20.0454747,25.0874848 L10.0719031,25.0874848 C9.47748413,25.0874848 9,24.6063183 9,24.018226 L9,14.0692588 C9,13.4811665 9.47748413,13 10.0719031,13 L20.0454747,13 C20.6398937,13 21.1173778,13.4811665 21.1173778,14.0692588 L21.1173778,24.0133657 C21.1173778,24.6063183 20.6398937,25.0874848 20.0454747,25.0874848 L20.0454747,25.0874848 Z M11.1438063,22.9489672 L18.9735715,22.9489672 L18.9735715,15.1385176 L11.1438063,15.1385176 L11.1438063,22.9489672 Z M20.0454747,41 L10.0719031,41 C9.47748413,41 9,40.5188335 9,39.9307412 L9,29.9866343 C9,29.3985419 9.47748413,28.9173755 10.0719031,28.9173755 L20.0454747,28.9173755 C20.6398937,28.9173755 21.1173778,29.3985419 21.1173778,29.9866343 L21.1173778,39.9356015 C21.1173778,40.5236938 20.6398937,41 20.0454747,41 L20.0454747,41 Z M11.1438063,38.8614824 L18.9735715,38.8614824 L18.9735715,31.0558931 L11.1438063,31.0558931 L11.1438063,38.8614824 Z M25.1857375,14.0692588 L41.0011812,14.0692588 C41.5517496,14.0692588 42,14.5164034 42,15.0656136 C42,15.6148238 41.5517496,16.0619684 41.0011812,16.0619684 L25.1857375,16.0619684 C24.6351691,16.0619684 24.1869186,15.6148238 24.1869186,15.0656136 C24.1869186,14.5164034 24.6351691,14.0692588 25.1857375,14.0692588 Z" id="形状" fill="#FFFFFF"></path>
                        </g>
                    </g>
                </g>
            </g>
        </g>
    </g>
</svg>