<?xml version="1.0" encoding="UTF-8"?>
<svg width="50px" height="50px" viewBox="0 0 50 50" version="1.1" xmlns="http://www.w3.org/2000/svg" xmlns:xlink="http://www.w3.org/1999/xlink">
    <title>拍照</title>
    <g id="页面-1" stroke="none" stroke-width="1" fill="none" fill-rule="evenodd">
        <g id="四重奏官网-首页" transform="translate(-935.000000, -2725.000000)" fill-rule="nonzero">
            <g id="网站备案" transform="translate(0.000000, 2494.000000)">
                <g id="编组-15" transform="translate(360.500000, 207.000000)">
                    <g id="编组-14备份-2" transform="translate(550.500000, 0.000000)">
                        <g id="拍照" transform="translate(24.000000, 24.000000)">
                            <rect id="矩形" fill="#000000" opacity="0" x="0" y="0" width="50" height="50"></rect>
                            <path d="M28.8,14.3571429 L31.6285714,17.8928571 L39.6428571,17.8928571 L39.6428571,35.5714286 L11.3571429,35.5714286 L11.3571429,17.8928571 L18.7821429,17.8928571 L21.6107143,14.3571429 L28.8,14.3571429 M29.9196429,12 L20.4910714,12 L17.6625,15.5357143 L11.3571429,15.5357143 C10.0607143,15.5357143 9,16.5964286 9,17.8928571 L9,35.5714286 C9,36.8678571 10.0607143,37.9285714 11.3571429,37.9285714 L39.6428571,37.9285714 C40.9392857,37.9285714 42,36.8678571 42,35.5714286 L42,17.8928571 C42,16.5964286 40.9392857,15.5357143 39.6428571,15.5357143 L32.7482143,15.5357143 L29.9196429,12 Z M25.5,19.0714286 C21.58125,19.0714286 18.4285714,22.2241071 18.4285714,26.1428571 C18.4285714,30.0616071 21.58125,33.2142857 25.5,33.2142857 C29.41875,33.2142857 32.5714286,30.0616071 32.5714286,26.1428571 C32.5714286,22.2241071 29.41875,19.0714286 25.5,19.0714286 Z M25.5,30.8571429 C22.9071429,30.8571429 20.7857143,28.7357143 20.7857143,26.1428571 C20.7857143,23.55 22.9071429,21.4285714 25.5,21.4285714 C28.0928571,21.4285714 30.2142857,23.55 30.2142857,26.1428571 C30.2142857,28.7357143 28.0928571,30.8571429 25.5,30.8571429 Z" id="形状" fill="#FFFFFF"></path>
                        </g>
                    </g>
                </g>
            </g>
        </g>
    </g>
</svg>