<?xml version="1.0" encoding="UTF-8"?>
<svg width="50px" height="50px" viewBox="0 0 50 50" version="1.1" xmlns="http://www.w3.org/2000/svg" xmlns:xlink="http://www.w3.org/1999/xlink">
    <title>等待审核</title>
    <g id="页面-1" stroke="none" stroke-width="1" fill="none" fill-rule="evenodd">
        <g id="四重奏官网-首页" transform="translate(-1176.000000, -2725.000000)" fill-rule="nonzero">
            <g id="网站备案" transform="translate(0.000000, 2494.000000)">
                <g id="编组-15" transform="translate(360.500000, 207.000000)">
                    <g id="编组-14备份-3" transform="translate(791.500000, 0.000000)">
                        <g id="等待审核" transform="translate(24.000000, 24.000000)">
                            <rect id="矩形" fill="#000000" opacity="0" x="0" y="0" width="50" height="50"></rect>
                            <path d="M36.4258245,29.4382337 L31.9987703,29.4382337 C31.7442146,29.2611515 31.5044159,29.0582448 31.2867524,28.8332029 C30.3828955,27.9035215 30.3275573,27.1066518 30.3460034,26.8078256 L30.3496926,26.6012297 L30.3496926,26.5938513 C30.3496926,26.5053102 30.4935718,26.0810509 30.8551146,25.4649525 C30.9916154,25.2325321 31.1354947,25.003801 31.2867524,24.7787591 C31.6150922,24.2807155 31.9729458,23.7937395 32.341867,23.3288988 C33.6330911,21.7904975 34.3414198,19.831526 34.3414198,17.8172163 C34.3414198,13.1024036 30.5415316,9.22873113 25.690218,9 L25.0298491,9 C20.1564002,9.22873113 16.3343767,13.1024036 16.3343767,17.8172163 C16.338066,19.8425936 17.0537731,21.8089435 18.3486864,23.3584125 L18.4150922,23.4432644 C18.7692566,23.8933482 19.1049748,24.3581889 19.4259363,24.8340973 C20.0715484,25.8154276 20.3334824,26.4721073 20.326104,26.5901621 L20.326104,26.8004472 C20.34455,27.0955841 20.2929011,27.877697 19.4333147,28.7926216 L19.3816657,28.8442705 C19.1787591,29.0545556 18.9426495,29.2574623 18.6733371,29.4419229 L14.2610397,29.4419229 C11.3133594,29.4382337 10,30.592957 10,33.1827837 L10,38.9453326 C10,39.7606484 10.3172722,40.5280045 10.8964785,41.1072107 C11.4756847,41.6790386 12.2393516,42 13.0509782,42 L37.6285075,41.948351 C39.3107881,41.9409726 40.6721151,40.5796534 40.6721151,38.8973728 L40.6721151,33.1827837 C40.6757965,30.592957 39.3661263,29.4345444 36.4258245,29.4382337 Z M12.2577977,38.9453326 L12.2577977,33.1864729 C12.2577977,32.4892119 12.3463387,32.160872 12.5861375,31.9727222 C12.8443823,31.7735048 13.3166015,31.6923421 14.2610397,31.6923421 L19.352152,31.6923421 L19.6251537,31.5152599 C20.1268865,31.2016769 20.5917272,30.8290665 21.0086082,30.4084964 C22.4769145,28.8959195 22.6281722,27.423924 22.5875908,26.6713248 C22.6171045,25.9002795 22.2334265,24.9742873 21.3148127,23.576076 C20.9262024,22.9919325 20.5113566,22.4256741 20.0715484,21.8790386 C19.1234209,20.7353829 18.603242,19.2965903 18.5995528,17.8098379 C18.5995528,14.3050866 21.4513136,11.4238122 25.0888765,11.2504192 L25.6348798,11.2504192 C29.2503074,11.4238122 32.0799329,14.3013974 32.0799329,17.8061487 C32.0799329,19.2965903 31.5523756,20.7390721 30.5968698,21.8827278 C30.1762996,22.4102851 29.7741755,22.9599776 29.4015651,23.5207378 C29.2281722,23.7826719 29.0621576,24.0519843 28.9035215,24.324986 C28.3132476,25.3432085 28.0697596,26.0441587 28.0918949,26.6713248 C28.0513136,27.4202348 28.2025713,28.8922303 29.6671884,30.4048072 C30.0840693,30.8290665 30.54891,31.2016769 31.0506428,31.5189491 L31.3310229,31.6960313 L36.4405813,31.6960313 C38.2482951,31.6960313 38.4179989,31.9579653 38.4179989,33.1827837 L38.4179989,38.8936836 C38.4179989,39.1039687 38.3368362,39.3031861 38.1855785,39.4544438 C38.0380101,39.6020123 37.8351034,39.6868642 37.6248183,39.6868642 L13.047289,39.7385131 C12.8370039,39.7385131 12.6340973,39.6573505 12.4865288,39.5060928 C12.3426495,39.3622135 12.2614869,39.1593069 12.2577977,38.9453326 L12.2577977,38.9453326 Z M19.4185579,34.9388485 L31.2867524,34.9388485 L31.2867524,37.2003354 L19.4185579,37.2003354 L19.4185579,34.9388485 Z" id="形状" fill="#FFFFFF"></path>
                        </g>
                    </g>
                </g>
            </g>
        </g>
    </g>
</svg>