<?xml version="1.0" encoding="UTF-8"?>
<svg width="35px" height="35px" viewBox="0 0 35 35" version="1.1" xmlns="http://www.w3.org/2000/svg" xmlns:xlink="http://www.w3.org/1999/xlink">
    <title>网站模板</title>
    <defs>
        <linearGradient x1="50%" y1="0%" x2="50%" y2="100%" id="linearGradient-1">
            <stop stop-color="#D03912" offset="0%"></stop>
            <stop stop-color="#EC7507" offset="100%"></stop>
        </linearGradient>
        <linearGradient x1="50%" y1="0%" x2="50%" y2="100%" id="linearGradient-2">
            <stop stop-color="#D03912" offset="0%"></stop>
            <stop stop-color="#EC7507" offset="100%"></stop>
        </linearGradient>
        <linearGradient x1="50%" y1="0%" x2="50%" y2="100%" id="linearGradient-3">
            <stop stop-color="#D03912" offset="0%"></stop>
            <stop stop-color="#EC7507" offset="100%"></stop>
        </linearGradient>
    </defs>
    <g id="页面-1" stroke="none" stroke-width="1" fill="none" fill-rule="evenodd">
        <g id="四重奏官网-首页" transform="translate(-1198.000000, -3262.000000)" fill-rule="nonzero">
            <g id="企业应用" transform="translate(0.000000, 3016.000000)">
                <g id="编组-3备份-5" transform="translate(1170.000000, 209.000000)">
                    <g id="网站模板" transform="translate(28.000000, 37.000000)">
                        <rect id="矩形" fill="#000000" opacity="0" x="0" y="0" width="34.9658537" height="34.9658537"></rect>
                        <path d="M14.597561,6.11219512 L6.47073171,6.11219512 C6.04629268,6.11219512 5.70243902,6.45604878 5.70243902,6.8804878 C5.70243902,7.30492683 6.04629268,7.64878049 6.47073171,7.64878049 L14.597561,7.64878049 C15.022,7.64878049 15.3658537,7.30492683 15.3658537,6.8804878 C15.3658537,6.45604878 15.022,6.11219512 14.597561,6.11219512 Z M11.5585366,10.6536585 L6.47073171,10.6536585 C6.04629268,10.6536585 5.70243902,10.9975122 5.70243902,11.4219512 C5.70243902,11.8463902 6.04629268,12.1902439 6.47073171,12.1902439 L11.5585366,12.1902439 C11.9829756,12.1902439 12.3268293,11.8463902 12.3268293,11.4219512 C12.3268293,10.9975122 11.9829756,10.6536585 11.5585366,10.6536585 Z" id="形状" fill="url(#linearGradient-1)"></path>
                        <path d="M28.8246341,19.9602439 C28.4258049,19.815122 27.9849756,20.0206829 27.8398537,20.4195122 L25.3560488,27.2436585 C25.2109268,27.6424878 25.4164878,28.0833171 25.8153171,28.228439 C26.2141463,28.373561 26.6549756,28.168 26.8000976,27.7691707 L29.2839024,20.9450244 C29.4290244,20.5461951 29.2234634,20.1053659 28.8246341,19.9602439 Z M23.5302439,21.1184878 C23.1826341,20.8750244 22.703561,20.9597073 22.4600976,21.3073171 L20.8374634,23.6248293 C20.757623,23.738826 20.7105062,23.8725008 20.7012195,24.0113659 C20.700878,24.0137561 20.700878,24.0161463 20.700878,24.0185366 C20.6998537,24.0356098 20.6991707,24.0526829 20.6991707,24.0697561 C20.6991707,24.0868293 20.6998537,24.1039024 20.700878,24.1209756 C20.7012195,24.1233659 20.7012195,24.1257561 20.7012195,24.1281463 C20.710439,24.2626829 20.7544878,24.3961951 20.8374634,24.5146829 L22.4600976,26.8321951 C22.703561,27.1798049 23.1826341,27.2641463 23.5302439,27.0210244 C23.8778537,26.777561 23.9621951,26.2984878 23.7190732,25.950878 L22.4017073,24.0697561 L23.7190732,22.1886341 C23.9621951,21.8410244 23.8778537,21.3619512 23.5302439,21.1184878 Z M33.9407805,24.0697561 C33.9407805,24.0526829 33.9400976,24.0356098 33.9390732,24.0185366 C33.9387317,24.0161463 33.9387317,24.0137561 33.9387317,24.0113659 C33.9295122,23.8768293 33.8854634,23.7433171 33.8024878,23.6248293 L32.1798537,21.3073171 C31.9363902,20.9597073 31.4573171,20.8753659 31.1097073,21.1184878 C30.7620976,21.3616098 30.6777561,21.8410244 30.920878,22.1886341 L32.2382439,24.0697561 L30.920878,25.950878 C30.6774146,26.2984878 30.7620976,26.777561 31.1097073,27.0210244 C31.4573171,27.2644878 31.9363902,27.1798049 32.1798537,26.8321951 L33.8024878,24.5146829 C33.8823282,24.4006862 33.929445,24.2670114 33.9387317,24.1281463 C33.9390732,24.1257561 33.9390732,24.1233659 33.9390732,24.1209756 C33.9400976,24.1039024 33.9407805,24.0868293 33.9407805,24.0697561 L33.9407805,24.0697561 Z" id="形状" fill="url(#linearGradient-2)"></path>
                        <path d="M34.9658537,18.9512195 L34.9658537,3.50409756 C34.9658537,1.57687805 33.3889756,0 31.4617561,0 L3.50409756,0 C1.57687805,0 0,1.57687805 0,3.50409756 L0,24.256878 C0,26.1840976 1.57687805,27.7609756 3.50409756,27.7609756 L16.4926829,27.7609756 L16.4926829,32.9853659 L7.17073171,32.9853659 C6.62370732,32.9853659 6.1804878,33.4285854 6.1804878,33.9756098 C6.1804878,34.5226341 6.62370732,34.9658537 7.17073171,34.9658537 L27.795122,34.9658537 C28.3421463,34.9658537 28.7853659,34.5226341 28.7853659,33.9756098 C28.7853659,33.4285854 28.3421463,32.9853659 27.795122,32.9853659 L18.4731707,32.9853659 L18.4731707,27.7609756 L19.9745854,27.7609756 L19.9745854,27.762 C20.3809268,27.7275122 20.7001951,27.3870732 20.7001951,26.9721951 C20.7001951,26.5576585 20.3816098,26.217561 19.9756098,26.1827317 L19.9756098,26.1823902 L3.50409756,26.1823902 C2.99360976,26.1823902 2.51112195,25.9809268 2.14541463,25.6152195 C1.77970732,25.2495122 1.5782439,24.7670244 1.5782439,24.2565366 L1.5782439,3.50409756 C1.5782439,2.99360976 1.77970732,2.51112195 2.14541463,2.14541463 C2.51112195,1.77970732 2.99360976,1.5782439 3.50409756,1.5782439 L31.4617561,1.5782439 C31.9722439,1.5782439 32.4547317,1.77970732 32.820439,2.14541463 C33.1861463,2.51112195 33.3876098,2.99360976 33.3876098,3.50409756 L33.3876098,18.9512195 C33.4220976,19.357561 33.7625366,19.6768293 34.1774146,19.6768293 C34.5922927,19.6768293 34.9323902,19.357561 34.9672195,18.9512195 L34.9658537,18.9512195 Z" id="路径" fill="url(#linearGradient-3)"></path>
                    </g>
                </g>
            </g>
        </g>
    </g>
</svg>