<?xml version="1.0" encoding="UTF-8"?>
<svg width="35px" height="35px" viewBox="0 0 35 35" version="1.1" xmlns="http://www.w3.org/2000/svg" xmlns:xlink="http://www.w3.org/1999/xlink">
    <title>企业邮箱</title>
    <defs>
        <linearGradient x1="50%" y1="0%" x2="50%" y2="100%" id="linearGradient-1">
            <stop stop-color="#D03912" offset="0%"></stop>
            <stop stop-color="#EC7507" offset="100%"></stop>
        </linearGradient>
        <linearGradient x1="50%" y1="0%" x2="50%" y2="100%" id="linearGradient-2">
            <stop stop-color="#D03912" offset="0%"></stop>
            <stop stop-color="#EC7507" offset="100%"></stop>
        </linearGradient>
    </defs>
    <g id="页面-1" stroke="none" stroke-width="1" fill="none" fill-rule="evenodd">
        <g id="四重奏官网-首页" transform="translate(-390.000000, -3542.000000)" fill-rule="nonzero">
            <g id="企业应用" transform="translate(0.000000, 3016.000000)">
                <g id="编组-3备份-6" transform="translate(360.000000, 489.000000)">
                    <g id="企业邮箱" transform="translate(30.000000, 37.000000)">
                        <rect id="矩形" fill="#000000" opacity="0" x="0" y="0" width="35" height="35"></rect>
                        <path d="M30.625,29.9833333 L4.375,29.9833333 C2.625,29.9833333 1.16666666,28.525 1.16666666,26.775 L1.16666666,8.225 C1.16666666,6.475 2.625,5.01666666 4.375,5.01666666 L30.625,5.01666666 C32.375,5.01666666 33.8333333,6.475 33.8333333,8.225 L33.8333333,26.775 C33.8333333,28.525 32.375,29.9833333 30.625,29.9833333 Z M4.375,6.76666666 C3.55833334,6.76666666 2.91666666,7.40833331 2.91666666,8.225 L2.91666666,26.775 C2.91666666,27.5916667 3.55833331,28.2333333 4.375,28.2333333 L30.625,28.2333333 C31.4416667,28.2333333 32.0833333,27.5916667 32.0833333,26.775 L32.0833333,8.225 C32.0833333,7.40833334 31.4416667,6.76666666 30.625,6.76666666 L4.375,6.76666666 Z" id="形状" fill="url(#linearGradient-1)"></path>
                        <path d="M17.5,18.375 C17.325,18.375 17.15,18.3166667 16.975,18.2 L2.39166666,7.23333334 C1.98333331,6.94166669 1.925,6.41666669 2.21666666,6.00833334 C2.50833331,5.6 3.03333331,5.54166669 3.44166666,5.83333334 L17.5,16.45 L31.5583333,5.89166666 C31.9666667,5.6 32.4916667,5.65833331 32.7833333,6.06666666 C33.075,6.475 33.0166667,7 32.6083333,7.29166666 L18.025,18.2583333 C17.85,18.3166667 17.675,18.375 17.5,18.375 L17.5,18.375 Z" id="路径" fill="url(#linearGradient-2)"></path>
                    </g>
                </g>
            </g>
        </g>
    </g>
</svg>