<?xml version="1.0" encoding="UTF-8"?>
<svg width="35px" height="35px" viewBox="0 0 35 35" version="1.1" xmlns="http://www.w3.org/2000/svg" xmlns:xlink="http://www.w3.org/1999/xlink">
    <title>短信营销</title>
    <defs>
        <linearGradient x1="50%" y1="0%" x2="50%" y2="100%" id="linearGradient-1">
            <stop stop-color="#D03912" offset="0%"></stop>
            <stop stop-color="#EC7507" offset="100%"></stop>
        </linearGradient>
    </defs>
    <g id="页面-1" stroke="none" stroke-width="1" fill="none" fill-rule="evenodd">
        <g id="四重奏官网-首页" transform="translate(-1198.000000, -3542.000000)" fill-rule="nonzero">
            <g id="企业应用" transform="translate(0.000000, 3016.000000)">
                <g id="编组-3备份-11" transform="translate(1170.000000, 489.000000)">
                    <g id="短信营销" transform="translate(28.000000, 37.000000)">
                        <rect id="矩形" fill="#000000" opacity="0" x="0" y="0" width="35" height="35"></rect>
                        <path d="M5.29687501,33.9257813 C5.03906252,33.9257813 4.79296877,33.796875 4.6484375,33.578125 C4.47265625,33.3164062 4.47265625,32.9765625 4.64453124,32.7148437 L6.64062499,29.6757812 C6.95703125,29.1796875 6.81640624,28.5039062 6.31640625,28.1367188 C2.34765624,25.2148438 0.0703125049,20.921875 0.0703125049,16.3671875 C0.0703125049,14.28125 0.535156255,12.2617187 1.45703124,10.359375 C2.33984372,8.53125 3.60546874,6.890625 5.2109375,5.484375 C6.81250001,4.0859375 8.67187501,2.98437501 10.7421875,2.21875001 C12.8789062,1.42578126 15.1523437,1.02734375 17.4882813,1.02734375 C19.8242188,1.02734375 22.0976563,1.42968752 24.234375,2.21875001 C26.3046875,2.98437501 28.1679687,4.08203127 29.765625,5.484375 C31.375,6.890625 32.6367188,8.53125 33.5195312,10.359375 C34.4375,12.2617187 34.90625,14.28125 34.90625,16.3671875 C34.90625,18.1679687 34.5546875,19.9335938 33.8632812,21.6132812 C33.1953125,23.2304688 32.2265625,24.7304687 30.9882812,26.0664062 C28.515625,28.734375 25.0664062,30.609375 21.2695312,31.3476562 C20.6015625,31.4765625 19.9140625,31.5742187 19.234375,31.6328125 C18.8046875,31.671875 18.4257812,31.3515625 18.3867187,30.921875 C18.3476562,30.4921875 18.6679687,30.1132812 19.0976562,30.0742187 C19.7265625,30.0195312 20.3554687,29.9296875 20.9726562,29.8125 C24.4453125,29.1367187 27.59375,27.4296875 29.84375,25.0039062 C30.9570313,23.8046875 31.8242187,22.4609375 32.421875,21.015625 C33.0351563,19.5273438 33.3476563,17.9609375 33.3476563,16.3632812 C33.3476563,12.703125 31.7109375,9.25390625 28.7421875,6.65625 C27.2851563,5.38281249 25.5898438,4.37890626 23.6953125,3.6796875 C21.7304688,2.953125 19.6445312,2.58203125 17.4882813,2.58203125 C15.3359375,2.58203125 13.2460937,2.94921874 11.28125,3.6796875 C9.390625,4.37890626 7.69140627,5.38281249 6.234375,6.65625 C3.265625,9.2578125 1.63281251,12.7070313 1.63281251,16.3671875 C1.63281251,20.421875 3.6796875,24.2539063 7.24609375,26.8828125 C8.41015625,27.7382812 8.71874999,29.3398438 7.95312499,30.5273438 C7.95312499,30.5273438 7.94921873,30.53125 7.94921876,30.5351563 L6.9609375,32.0390625 L12.5976563,30.9765625 C12.6015625,30.9765625 12.6054687,30.9765625 12.609375,30.9726563 L15.109375,30.546875 C15.5351563,30.4726562 15.9375,30.7617188 16.0117188,31.1875 C16.0859375,31.6132813 15.796875,32.015625 15.3710938,32.0898438 L12.875,32.515625 L5.43749999,33.9179687 C5.39062498,33.921875 5.34375,33.9257813 5.29687501,33.9257813 Z M9.32812499,15.5859375 C9.32806158,15.915334 9.50375609,16.219736 9.78901126,16.3844526 C10.0742664,16.5491692 10.4257336,16.5491692 10.7109888,16.3844526 C10.9962439,16.219736 11.1719384,15.915334 11.171875,15.5859375 C11.1719384,15.256541 10.9962439,14.952139 10.7109888,14.7874224 C10.4257336,14.6227058 10.0742664,14.6227058 9.78901126,14.7874224 C9.50375609,14.952139 9.32806158,15.256541 9.32812499,15.5859375 L9.32812499,15.5859375 Z M16.7109375,15.6015625 C16.7108741,15.930959 16.8865686,16.2353611 17.1718238,16.4000776 C17.4570789,16.5647942 17.8085461,16.5647942 18.0938013,16.4000776 C18.3790564,16.2353611 18.5547509,15.930959 18.5546875,15.6015625 C18.5547509,15.272166 18.3790564,14.967764 18.0938013,14.8030474 C17.8085461,14.6383308 17.4570789,14.6383308 17.1718238,14.8030474 C16.8865686,14.967764 16.7108741,15.272166 16.7109375,15.6015625 L16.7109375,15.6015625 Z M24.0976562,15.5859375 C24.0976562,16.095075 24.5103937,16.5078125 25.0195312,16.5078125 C25.5286688,16.5078125 25.9414063,16.095075 25.9414063,15.5859375 C25.9414063,15.0768 25.5286688,14.6640625 25.0195312,14.6640625 C24.5103937,14.6640625 24.0976562,15.0768 24.0976562,15.5859375 L24.0976562,15.5859375 Z" id="形状" fill="url(#linearGradient-1)"></path>
                    </g>
                </g>
            </g>
        </g>
    </g>
</svg>