<?xml version="1.0" encoding="UTF-8"?>
<svg width="25px" height="25px" viewBox="0 0 25 25" version="1.1" xmlns="http://www.w3.org/2000/svg" xmlns:xlink="http://www.w3.org/1999/xlink">
    <title>资源</title>
    <defs>
        <linearGradient x1="50%" y1="0%" x2="50%" y2="100%" id="linearGradient-1">
            <stop stop-color="#C92C15" offset="0%"></stop>
            <stop stop-color="#F58605" offset="100%"></stop>
        </linearGradient>
    </defs>
    <g id="页面-1" stroke="none" stroke-width="1" fill="none" fill-rule="evenodd">
        <g id="四重奏官网-首页" transform="translate(-392.000000, -1609.000000)" fill-rule="nonzero">
            <g id="服务器托管" transform="translate(0.000000, 1253.000000)">
                <g id="编组-3" transform="translate(360.000000, 208.000000)">
                    <g id="编组-7" transform="translate(32.000000, 31.000000)">
                        <g id="资源" transform="translate(0.000000, 117.000000)">
                            <rect id="矩形" fill="#000000" opacity="0" x="0" y="0" width="25" height="25"></rect>
                            <path d="M23.3717664,12.491181 C23.3717664,6.49132388 18.5043665,1.62759648 12.5001374,1.62759648 C6.4957084,1.62759648 1.62820857,6.49137385 1.62820857,12.491181 C1.62820857,18.0335732 5.78151763,22.606198 11.1476794,23.2715719 C11.4501743,23.3353037 11.8185745,23.3724285 12.2574769,23.3724285 C12.3805935,23.3724285 12.4994878,23.3658829 12.6142101,23.3542158 C18.5659248,23.2930823 23.3717664,18.4531388 23.3717664,12.491181 L23.3717664,12.491181 Z M21.8172704,12.6448768 C21.7859416,12.1027693 21.7143152,11.572304 21.6053391,11.0566536 C21.6150325,10.8725534 21.6175808,10.6980467 21.6127091,10.5358567 C21.7475177,11.1663292 21.8186445,11.8204857 21.8186445,12.491181 C21.8186445,12.5425461 21.8179949,12.5936865 21.8172704,12.6448768 L21.8172704,12.6448768 Z M3.18133057,12.491181 C3.18133057,11.8327524 3.24993406,11.190263 3.37999587,10.5704083 C3.78237307,11.0008414 4.73092993,10.9906733 4.9622731,10.3476093 C5.3761175,10.5943171 5.93231541,10.6391616 5.93231541,11.1322773 C5.93231541,12.7593991 5.99022615,14.5039164 7.46874871,14.530898 C7.51039546,14.5314227 8.29328967,14.8275219 8.66586206,15.7938667 C8.79472468,16.1278653 9.30422925,15.7938667 9.86302539,15.7938667 C10.1420112,15.7938667 9.86302539,16.2637731 9.86302539,17.2800591 C9.86302539,18.2924977 12.0456206,19.8512159 12.0456206,19.8512159 C12.0356024,20.5214115 12.0630837,21.063344 12.118771,21.4962505 C11.62618,21.4870818 11.2109115,21.5523625 10.8848326,21.6634122 C6.50814998,20.8990554 3.18133057,17.0835174 3.18133057,12.491181 L3.18133057,12.491181 Z M14.794232,21.5184855 C14.7458648,21.2819708 14.5345581,21.1524836 14.1489695,21.2538149 C14.4566109,19.9435782 14.6062095,19.2095509 15.248549,18.6523037 C16.177794,17.84665 15.359224,16.9508323 14.6519785,17.0563608 C14.0945814,17.1404788 14.4468925,16.3663036 13.9492799,16.3233578 C13.4518172,16.2817859 12.8022076,15.2922818 12.0861431,14.9516877 C11.7066004,14.7715349 11.3336783,14.2884125 10.7482252,14.2668021 C10.229402,14.2466408 9.47126599,14.7055296 9.47126599,14.3517945 C9.47126599,13.2126668 9.35591919,12.3997929 9.33223525,12.075213 C9.31307324,11.8144148 9.16170088,11.9872726 9.86305037,12.0042112 C10.2447916,12.0143543 10.058343,11.237506 10.4361368,11.2072015 C10.8072352,11.1778215 11.6913858,11.5544661 11.916658,11.4044428 C12.1258912,11.2646376 13.455065,14.8931025 13.455065,12.0041362 C13.455065,11.6613936 13.2774854,11.0654227 13.455065,10.7407927 C14.157114,9.45793752 14.8144184,8.41234644 14.7553584,8.2593252 C14.7219311,8.17330852 14.0371204,8.10218174 13.4890669,8.2860071 C13.3042423,8.34776523 13.5479021,8.63741885 13.2823571,8.69930188 C12.2873067,8.92894619 11.4080779,8.43088386 11.7159191,7.96280122 C12.0312304,7.48305149 13.1735808,7.75356809 13.273663,6.79114561 C13.3312989,6.23981941 13.3790416,5.60127734 13.4109699,5.12672407 C14.7502868,5.33618206 14.6027868,3.38865249 12.611462,3.1802188 C16.6401305,3.22736184 20.053916,5.8290229 21.3066916,9.43987476 C21.2433845,9.38216389 21.1696095,9.34696274 21.0844673,9.33846851 C20.4823255,7.83451318 19.0209413,8.92285029 19.5167802,10.249326 C16.8605811,12.2911916 17.54052,13.715276 18.4131534,14.5307981 C18.8723421,14.9594075 19.3102202,15.6041454 19.595227,16.0671065 C19.2849873,16.9718681 20.7383769,16.6095137 21.4552659,15.0742796 C20.543459,18.2364857 17.9998336,20.7075353 14.794232,21.5184855 L14.794232,21.5184855 Z" id="形状" fill="url(#linearGradient-1)"></path>
                        </g>
                    </g>
                </g>
            </g>
        </g>
    </g>
</svg>