<?xml version="1.0" encoding="UTF-8"?>
<svg width="25px" height="25px" viewBox="0 0 25 25" version="1.1" xmlns="http://www.w3.org/2000/svg" xmlns:xlink="http://www.w3.org/1999/xlink">
    <title>技术</title>
    <defs>
        <linearGradient x1="50%" y1="0%" x2="50%" y2="100%" id="linearGradient-1">
            <stop stop-color="#C92C15" offset="0%"></stop>
            <stop stop-color="#F48505" offset="100%"></stop>
        </linearGradient>
        <linearGradient x1="50%" y1="0%" x2="50%" y2="100%" id="linearGradient-2">
            <stop stop-color="#C92C15" offset="0%"></stop>
            <stop stop-color="#F48505" offset="100%"></stop>
        </linearGradient>
    </defs>
    <g id="页面-1" stroke="none" stroke-width="1" fill="none" fill-rule="evenodd">
        <g id="四重奏官网-首页" transform="translate(-392.000000, -1686.000000)" fill-rule="nonzero">
            <g id="服务器托管" transform="translate(0.000000, 1253.000000)">
                <g id="编组-3" transform="translate(360.000000, 208.000000)">
                    <g id="编组-7" transform="translate(32.000000, 31.000000)">
                        <g id="技术" transform="translate(0.000000, 194.000000)">
                            <rect id="矩形" fill="#000000" opacity="0" x="0" y="0" width="25" height="25"></rect>
                            <path d="M18.9583333,23.6666667 L3.29166667,23.6666667 C1.91666667,23.6666667 0.833333325,22.5416667 0.833333325,21.2083333 L0.833333325,3.79166667 C0.833333325,2.41666667 1.95833333,1.33333333 3.29166667,1.33333333 L9.70833333,1.33333333 C9.95833333,1.33333333 10.1666667,1.45833333 10.3333333,1.625 L12.9583333,4.79166667 L18.9583333,4.79166667 C20.3333333,4.79166667 21.4166667,5.91666667 21.4166667,7.25 L21.4166667,21.2083333 C21.4583333,22.5416667 20.3333333,23.6666667 18.9583333,23.6666667 L18.9583333,23.6666667 Z M3.29166667,3 C2.83333335,3 2.45833333,3.375 2.45833333,3.83333333 L2.45833333,21.2083333 C2.45833333,21.6666667 2.83333333,22.0416667 3.29166667,22.0416667 L18.9583333,22.0416667 C19.4166667,22.0416667 19.7916667,21.6666667 19.7916667,21.2083333 L19.7916667,7.25 C19.7916667,6.79166667 19.4166667,6.41666667 18.9583333,6.41666667 L12.5833333,6.41666667 C12.3333333,6.41666667 12.125,6.29166667 11.9583333,6.125 L9.33333333,2.95833333 L3.29166667,2.95833333 L3.29166667,3 Z" id="形状" fill="url(#linearGradient-1)"></path>
                            <path d="M21.875,8.16666667 L7.125,8.16666667 C5.875,8.16666667 4.83333333,9.20833335 4.83333333,10.4583333 L4.83333333,23.0833333 C4.83333333,23.4166667 5.125,23.7083333 5.45833333,23.7083333 L21.875,23.7083333 C23.125,23.7083333 24.1666667,22.6666667 24.1666667,21.4166667 L24.1666667,10.4166667 C24.1666667,9.16666667 23.125,8.16666667 21.875,8.16666667 L21.875,8.16666667 Z M18.7916667,20.0416667 L10.25,20.0416667 L10.25,18.375 C10.25,17.9583333 10.5833333,17.625 11,17.625 L13.2083333,17.625 C13.4583333,17.625 13.4583333,17.4166667 13.4583333,16.875 C13.4583333,16.375 12.1666667,15.9166667 12.1666667,14.0833333 C12.1666667,12.25 13.5416667,11.7083333 14.6666667,11.7083333 C15.7916667,11.7083333 17,12.25 17,14.0833333 C17,15.9166667 15.7083333,16.2083333 15.7083333,16.875 C15.7083333,17.5416667 15.7083333,17.625 15.9166667,17.625 L18.0833333,17.625 C18.5,17.625 18.8333333,17.9583333 18.8333333,18.375 L18.8333333,20.0416667 L18.7916667,20.0416667 Z" id="形状" fill="url(#linearGradient-2)"></path>
                        </g>
                    </g>
                </g>
            </g>
        </g>
    </g>
</svg>