<?xml version="1.0" encoding="UTF-8"?>
<svg width="50px" height="50px" viewBox="0 0 50 50" version="1.1" xmlns="http://www.w3.org/2000/svg" xmlns:xlink="http://www.w3.org/1999/xlink">
    <title>填写信息</title>
    <g id="页面-1" stroke="none" stroke-width="1" fill="none" fill-rule="evenodd">
        <g id="四重奏官网-首页" transform="translate(-694.000000, -2725.000000)" fill-rule="nonzero">
            <g id="网站备案" transform="translate(0.000000, 2494.000000)">
                <g id="编组-15" transform="translate(360.500000, 207.000000)">
                    <g id="编组-14备份" transform="translate(309.500000, 0.000000)">
                        <g id="填写信息" transform="translate(24.000000, 24.000000)">
                            <rect id="矩形" fill="#000000" opacity="0" x="0" y="0" width="50" height="50"></rect>
                            <g id="编辑" transform="translate(9.000000, 9.000000)">
                                <rect id="矩形" fill="#000000" opacity="0" x="0" y="0" width="33" height="33"></rect>
                                <path d="M29.90625,11.7840938 C29.3367064,11.7840938 28.875,12.2458001 28.875,12.8153438 L28.875,27.84375 C28.875,28.4132936 28.4132936,28.875 27.84375,28.875 L5.15625,28.875 C4.58670635,28.875 4.125,28.4132936 4.125,27.84375 L4.125,5.15625 C4.125,4.58670635 4.58670635,4.125 5.15625,4.125 L19.0007812,4.125 C19.5703249,4.125 20.0320312,3.66329365 20.0320312,3.09375 C20.0320312,2.52420635 19.5703249,2.0625 19.0007812,2.0625 L5.15625,2.0625 C3.44761906,2.0625 2.0625,3.44761906 2.0625,5.15625 L2.0625,27.84375 C2.0625,29.5523809 3.44761906,30.9375 5.15625,30.9375 L27.84375,30.9375 C29.5523809,30.9375 30.9375,29.5523809 30.9375,27.84375 L30.9375,12.8153438 C30.9375,12.2458001 30.4757936,11.7840938 29.90625,11.7840938 Z" id="路径" fill="#FFFFFF"></path>
                                <path d="M7.4641875,22.4430937 C7.25569613,22.8772968 7.31808785,23.3930237 7.62410719,23.7649821 C7.93012653,24.1369405 8.42416562,24.2975406 8.89040625,24.176625 L13.6599375,22.9401562 L30.6312187,5.96990625 L26.255625,1.5943125 L9.359625,18.4903125 L7.4641875,22.4430937 L7.4641875,22.4430937 Z M11.067375,19.6999687 L26.255625,4.51171875 L27.7138125,5.96990625 L12.5998125,21.0839062 L10.0918125,21.7335937 L11.067375,19.6999687 Z" id="形状" fill="#FFFFFF"></path>
                            </g>
                        </g>
                    </g>
                </g>
            </g>
        </g>
    </g>
</svg>