<?xml version="1.0" encoding="UTF-8"?>
<svg width="50px" height="50px" viewBox="0 0 50 50" version="1.1" xmlns="http://www.w3.org/2000/svg" xmlns:xlink="http://www.w3.org/1999/xlink">
    <title>备案成功</title>
    <g id="页面-1" stroke="none" stroke-width="1" fill="none" fill-rule="evenodd">
        <g id="四重奏官网-首页" transform="translate(-1417.000000, -2725.000000)" fill-rule="nonzero">
            <g id="网站备案" transform="translate(0.000000, 2494.000000)">
                <g id="编组-15" transform="translate(360.500000, 207.000000)">
                    <g id="编组-14备份-4" transform="translate(1032.500000, 0.000000)">
                        <g id="备案成功" transform="translate(24.000000, 24.000000)">
                            <rect id="矩形" fill="#000000" opacity="0" x="0" y="0" width="50" height="50"></rect>
                            <path d="M25.4994107,42 C16.3870219,42 9,34.6117996 9,25.4994107 C9,16.3870219 16.3870219,9 25.4994107,9 C34.6117996,9 41.9988215,16.3870219 41.9988215,25.4994107 C41.9988215,34.6117996 34.6117996,42 25.4994107,42 Z M25.4994107,11.3582372 C17.6892968,11.3582372 11.3570587,17.6904753 11.3570587,25.5005893 C11.3570587,33.3107032 17.6892968,39.6429413 25.4994107,39.6429413 C33.3095247,39.6429413 39.6417628,33.3107032 39.6417628,25.5005893 C39.6417628,17.6904753 33.3095247,11.3582372 25.4994107,11.3582372 Z M23.9743938,31.0491054 L23.6891897,31.333131 L23.6337988,31.2777401 C23.4841256,31.3484519 23.3191315,31.393236 23.1423521,31.393236 C22.8913253,31.393236 22.6709403,31.2965966 22.4800186,31.1634227 L22.4517339,31.1905289 L22.3103103,31.0491054 C22.3091318,31.0479268 22.3091318,31.0479268 22.3079533,31.0467483 L17.4512339,26.1900289 L19.1188529,24.5235884 L23.1423521,28.5470876 L32.0225706,19.6656905 L33.6901897,21.3333095 L23.9767508,31.0467483 C23.9755723,31.0479268 23.9755723,31.0479268 23.9743938,31.0491054 Z" id="形状" fill="#FFFFFF"></path>
                        </g>
                    </g>
                </g>
            </g>
        </g>
    </g>
</svg>