<?xml version="1.0" encoding="UTF-8"?>
<svg width="1202px" height="15px" viewBox="0 0 1202 15" version="1.1" xmlns="http://www.w3.org/2000/svg" xmlns:xlink="http://www.w3.org/1999/xlink">
    <title>直线 5</title>
    <g id="页面-1" stroke="none" stroke-width="1" fill="none" fill-rule="evenodd">
        <g id="四重奏官网-首页" transform="translate(-359.000000, -2744.000000)" fill="#E3E4E6" fill-rule="nonzero">
            <g id="网站备案" transform="translate(0.000000, 2494.000000)">
                <g id="编组-15" transform="translate(360.500000, 207.000000)">
                    <path id="直线-5" d="M1186,43.5 L1200,50.5 L1186,57.5 L1186,51.5 L1183,51.5 L1183,49.5 L1186,49.5 L1186,43.5 Z M5,49.5 L5,51.5 L-1,51.5 L-1,49.5 L5,49.5 Z M13,49.5 L13,51.5 L7,51.5 L7,49.5 L13,49.5 Z M21,49.5 L21,51.5 L15,51.5 L15,49.5 L21,49.5 Z M29,49.5 L29,51.5 L23,51.5 L23,49.5 L29,49.5 Z M37,49.5 L37,51.5 L31,51.5 L31,49.5 L37,49.5 Z M45,49.5 L45,51.5 L39,51.5 L39,49.5 L45,49.5 Z M53,49.5 L53,51.5 L47,51.5 L47,49.5 L53,49.5 Z M61,49.5 L61,51.5 L55,51.5 L55,49.5 L61,49.5 Z M69,49.5 L69,51.5 L63,51.5 L63,49.5 L69,49.5 Z M77,49.5 L77,51.5 L71,51.5 L71,49.5 L77,49.5 Z M85,49.5 L85,51.5 L79,51.5 L79,49.5 L85,49.5 Z M93,49.5 L93,51.5 L87,51.5 L87,49.5 L93,49.5 Z M101,49.5 L101,51.5 L95,51.5 L95,49.5 L101,49.5 Z M109,49.5 L109,51.5 L103,51.5 L103,49.5 L109,49.5 Z M117,49.5 L117,51.5 L111,51.5 L111,49.5 L117,49.5 Z M125,49.5 L125,51.5 L119,51.5 L119,49.5 L125,49.5 Z M133,49.5 L133,51.5 L127,51.5 L127,49.5 L133,49.5 Z M141,49.5 L141,51.5 L135,51.5 L135,49.5 L141,49.5 Z M149,49.5 L149,51.5 L143,51.5 L143,49.5 L149,49.5 Z M157,49.5 L157,51.5 L151,51.5 L151,49.5 L157,49.5 Z M165,49.5 L165,51.5 L159,51.5 L159,49.5 L165,49.5 Z M173,49.5 L173,51.5 L167,51.5 L167,49.5 L173,49.5 Z M181,49.5 L181,51.5 L175,51.5 L175,49.5 L181,49.5 Z M189,49.5 L189,51.5 L183,51.5 L183,49.5 L189,49.5 Z M197,49.5 L197,51.5 L191,51.5 L191,49.5 L197,49.5 Z M205,49.5 L205,51.5 L199,51.5 L199,49.5 L205,49.5 Z M213,49.5 L213,51.5 L207,51.5 L207,49.5 L213,49.5 Z M221,49.5 L221,51.5 L215,51.5 L215,49.5 L221,49.5 Z M229,49.5 L229,51.5 L223,51.5 L223,49.5 L229,49.5 Z M237,49.5 L237,51.5 L231,51.5 L231,49.5 L237,49.5 Z M245,49.5 L245,51.5 L239,51.5 L239,49.5 L245,49.5 Z M253,49.5 L253,51.5 L247,51.5 L247,49.5 L253,49.5 Z M261,49.5 L261,51.5 L255,51.5 L255,49.5 L261,49.5 Z M269,49.5 L269,51.5 L263,51.5 L263,49.5 L269,49.5 Z M277,49.5 L277,51.5 L271,51.5 L271,49.5 L277,49.5 Z M285,49.5 L285,51.5 L279,51.5 L279,49.5 L285,49.5 Z M293,49.5 L293,51.5 L287,51.5 L287,49.5 L293,49.5 Z M301,49.5 L301,51.5 L295,51.5 L295,49.5 L301,49.5 Z M309,49.5 L309,51.5 L303,51.5 L303,49.5 L309,49.5 Z M317,49.5 L317,51.5 L311,51.5 L311,49.5 L317,49.5 Z M325,49.5 L325,51.5 L319,51.5 L319,49.5 L325,49.5 Z M333,49.5 L333,51.5 L327,51.5 L327,49.5 L333,49.5 Z M341,49.5 L341,51.5 L335,51.5 L335,49.5 L341,49.5 Z M349,49.5 L349,51.5 L343,51.5 L343,49.5 L349,49.5 Z M357,49.5 L357,51.5 L351,51.5 L351,49.5 L357,49.5 Z M365,49.5 L365,51.5 L359,51.5 L359,49.5 L365,49.5 Z M373,49.5 L373,51.5 L367,51.5 L367,49.5 L373,49.5 Z M381,49.5 L381,51.5 L375,51.5 L375,49.5 L381,49.5 Z M389,49.5 L389,51.5 L383,51.5 L383,49.5 L389,49.5 Z M397,49.5 L397,51.5 L391,51.5 L391,49.5 L397,49.5 Z M405,49.5 L405,51.5 L399,51.5 L399,49.5 L405,49.5 Z M413,49.5 L413,51.5 L407,51.5 L407,49.5 L413,49.5 Z M421,49.5 L421,51.5 L415,51.5 L415,49.5 L421,49.5 Z M429,49.5 L429,51.5 L423,51.5 L423,49.5 L429,49.5 Z M437,49.5 L437,51.5 L431,51.5 L431,49.5 L437,49.5 Z M445,49.5 L445,51.5 L439,51.5 L439,49.5 L445,49.5 Z M453,49.5 L453,51.5 L447,51.5 L447,49.5 L453,49.5 Z M461,49.5 L461,51.5 L455,51.5 L455,49.5 L461,49.5 Z M469,49.5 L469,51.5 L463,51.5 L463,49.5 L469,49.5 Z M477,49.5 L477,51.5 L471,51.5 L471,49.5 L477,49.5 Z M485,49.5 L485,51.5 L479,51.5 L479,49.5 L485,49.5 Z M493,49.5 L493,51.5 L487,51.5 L487,49.5 L493,49.5 Z M501,49.5 L501,51.5 L495,51.5 L495,49.5 L501,49.5 Z M509,49.5 L509,51.5 L503,51.5 L503,49.5 L509,49.5 Z M517,49.5 L517,51.5 L511,51.5 L511,49.5 L517,49.5 Z M525,49.5 L525,51.5 L519,51.5 L519,49.5 L525,49.5 Z M533,49.5 L533,51.5 L527,51.5 L527,49.5 L533,49.5 Z M541,49.5 L541,51.5 L535,51.5 L535,49.5 L541,49.5 Z M549,49.5 L549,51.5 L543,51.5 L543,49.5 L549,49.5 Z M557,49.5 L557,51.5 L551,51.5 L551,49.5 L557,49.5 Z M565,49.5 L565,51.5 L559,51.5 L559,49.5 L565,49.5 Z M573,49.5 L573,51.5 L567,51.5 L567,49.5 L573,49.5 Z M581,49.5 L581,51.5 L575,51.5 L575,49.5 L581,49.5 Z M589,49.5 L589,51.5 L583,51.5 L583,49.5 L589,49.5 Z M597,49.5 L597,51.5 L591,51.5 L591,49.5 L597,49.5 Z M605,49.5 L605,51.5 L599,51.5 L599,49.5 L605,49.5 Z M613,49.5 L613,51.5 L607,51.5 L607,49.5 L613,49.5 Z M621,49.5 L621,51.5 L615,51.5 L615,49.5 L621,49.5 Z M629,49.5 L629,51.5 L623,51.5 L623,49.5 L629,49.5 Z M637,49.5 L637,51.5 L631,51.5 L631,49.5 L637,49.5 Z M645,49.5 L645,51.5 L639,51.5 L639,49.5 L645,49.5 Z M653,49.5 L653,51.5 L647,51.5 L647,49.5 L653,49.5 Z M661,49.5 L661,51.5 L655,51.5 L655,49.5 L661,49.5 Z M669,49.5 L669,51.5 L663,51.5 L663,49.5 L669,49.5 Z M677,49.5 L677,51.5 L671,51.5 L671,49.5 L677,49.5 Z M685,49.5 L685,51.5 L679,51.5 L679,49.5 L685,49.5 Z M693,49.5 L693,51.5 L687,51.5 L687,49.5 L693,49.5 Z M701,49.5 L701,51.5 L695,51.5 L695,49.5 L701,49.5 Z M709,49.5 L709,51.5 L703,51.5 L703,49.5 L709,49.5 Z M717,49.5 L717,51.5 L711,51.5 L711,49.5 L717,49.5 Z M725,49.5 L725,51.5 L719,51.5 L719,49.5 L725,49.5 Z M733,49.5 L733,51.5 L727,51.5 L727,49.5 L733,49.5 Z M741,49.5 L741,51.5 L735,51.5 L735,49.5 L741,49.5 Z M749,49.5 L749,51.5 L743,51.5 L743,49.5 L749,49.5 Z M757,49.5 L757,51.5 L751,51.5 L751,49.5 L757,49.5 Z M765,49.5 L765,51.5 L759,51.5 L759,49.5 L765,49.5 Z M773,49.5 L773,51.5 L767,51.5 L767,49.5 L773,49.5 Z M781,49.5 L781,51.5 L775,51.5 L775,49.5 L781,49.5 Z M789,49.5 L789,51.5 L783,51.5 L783,49.5 L789,49.5 Z M797,49.5 L797,51.5 L791,51.5 L791,49.5 L797,49.5 Z M805,49.5 L805,51.5 L799,51.5 L799,49.5 L805,49.5 Z M813,49.5 L813,51.5 L807,51.5 L807,49.5 L813,49.5 Z M821,49.5 L821,51.5 L815,51.5 L815,49.5 L821,49.5 Z M829,49.5 L829,51.5 L823,51.5 L823,49.5 L829,49.5 Z M837,49.5 L837,51.5 L831,51.5 L831,49.5 L837,49.5 Z M845,49.5 L845,51.5 L839,51.5 L839,49.5 L845,49.5 Z M853,49.5 L853,51.5 L847,51.5 L847,49.5 L853,49.5 Z M861,49.5 L861,51.5 L855,51.5 L855,49.5 L861,49.5 Z M869,49.5 L869,51.5 L863,51.5 L863,49.5 L869,49.5 Z M877,49.5 L877,51.5 L871,51.5 L871,49.5 L877,49.5 Z M885,49.5 L885,51.5 L879,51.5 L879,49.5 L885,49.5 Z M893,49.5 L893,51.5 L887,51.5 L887,49.5 L893,49.5 Z M901,49.5 L901,51.5 L895,51.5 L895,49.5 L901,49.5 Z M909,49.5 L909,51.5 L903,51.5 L903,49.5 L909,49.5 Z M917,49.5 L917,51.5 L911,51.5 L911,49.5 L917,49.5 Z M925,49.5 L925,51.5 L919,51.5 L919,49.5 L925,49.5 Z M933,49.5 L933,51.5 L927,51.5 L927,49.5 L933,49.5 Z M941,49.5 L941,51.5 L935,51.5 L935,49.5 L941,49.5 Z M949,49.5 L949,51.5 L943,51.5 L943,49.5 L949,49.5 Z M957,49.5 L957,51.5 L951,51.5 L951,49.5 L957,49.5 Z M965,49.5 L965,51.5 L959,51.5 L959,49.5 L965,49.5 Z M973,49.5 L973,51.5 L967,51.5 L967,49.5 L973,49.5 Z M981,49.5 L981,51.5 L975,51.5 L975,49.5 L981,49.5 Z M989,49.5 L989,51.5 L983,51.5 L983,49.5 L989,49.5 Z M997,49.5 L997,51.5 L991,51.5 L991,49.5 L997,49.5 Z M1005,49.5 L1005,51.5 L999,51.5 L999,49.5 L1005,49.5 Z M1013,49.5 L1013,51.5 L1007,51.5 L1007,49.5 L1013,49.5 Z M1021,49.5 L1021,51.5 L1015,51.5 L1015,49.5 L1021,49.5 Z M1029,49.5 L1029,51.5 L1023,51.5 L1023,49.5 L1029,49.5 Z M1037,49.5 L1037,51.5 L1031,51.5 L1031,49.5 L1037,49.5 Z M1045,49.5 L1045,51.5 L1039,51.5 L1039,49.5 L1045,49.5 Z M1053,49.5 L1053,51.5 L1047,51.5 L1047,49.5 L1053,49.5 Z M1061,49.5 L1061,51.5 L1055,51.5 L1055,49.5 L1061,49.5 Z M1069,49.5 L1069,51.5 L1063,51.5 L1063,49.5 L1069,49.5 Z M1077,49.5 L1077,51.5 L1071,51.5 L1071,49.5 L1077,49.5 Z M1085,49.5 L1085,51.5 L1079,51.5 L1079,49.5 L1085,49.5 Z M1093,49.5 L1093,51.5 L1087,51.5 L1087,49.5 L1093,49.5 Z M1101,49.5 L1101,51.5 L1095,51.5 L1095,49.5 L1101,49.5 Z M1109,49.5 L1109,51.5 L1103,51.5 L1103,49.5 L1109,49.5 Z M1117,49.5 L1117,51.5 L1111,51.5 L1111,49.5 L1117,49.5 Z M1125,49.5 L1125,51.5 L1119,51.5 L1119,49.5 L1125,49.5 Z M1133,49.5 L1133,51.5 L1127,51.5 L1127,49.5 L1133,49.5 Z M1141,49.5 L1141,51.5 L1135,51.5 L1135,49.5 L1141,49.5 Z M1149,49.5 L1149,51.5 L1143,51.5 L1143,49.5 L1149,49.5 Z M1157,49.5 L1157,51.5 L1151,51.5 L1151,49.5 L1157,49.5 Z M1165,49.5 L1165,51.5 L1159,51.5 L1159,49.5 L1165,49.5 Z M1173,49.5 L1173,51.5 L1167,51.5 L1167,49.5 L1173,49.5 Z M1181,49.5 L1181,51.5 L1175,51.5 L1175,49.5 L1181,49.5 Z"></path>
                </g>
            </g>
        </g>
    </g>
</svg>