<?xml version="1.0" encoding="UTF-8"?>
<svg width="25px" height="25px" viewBox="0 0 25 25" version="1.1" xmlns="http://www.w3.org/2000/svg" xmlns:xlink="http://www.w3.org/1999/xlink">
    <title>机房</title>
    <defs>
        <linearGradient x1="50%" y1="0%" x2="50%" y2="100%" id="linearGradient-1">
            <stop stop-color="#CA2C15" offset="0%"></stop>
            <stop stop-color="#F48505" offset="100%"></stop>
        </linearGradient>
    </defs>
    <g id="页面-1" stroke="none" stroke-width="1" fill="none" fill-rule="evenodd">
        <g id="四重奏官网-首页" transform="translate(-392.000000, -1763.000000)" fill-rule="nonzero">
            <g id="服务器托管" transform="translate(0.000000, 1253.000000)">
                <g id="编组-3" transform="translate(360.000000, 208.000000)">
                    <g id="编组-7" transform="translate(32.000000, 31.000000)">
                        <g id="机房" transform="translate(0.000000, 271.000000)">
                            <rect id="矩形" fill="#000000" opacity="0" x="0" y="0" width="25" height="25"></rect>
                            <path d="M3.64575195,22.395752 L11.9790039,22.395752 L11.9790039,2.60424805 L3.64575195,2.60424805 L3.64575195,22.395752 Z M5.72924805,4.6875 L9.89599609,4.6875 L9.89599609,6.25 L5.72924805,6.25 L5.72924805,4.6875 Z M5.72924805,8.33325195 L9.89599609,8.33325195 L9.89599609,9.375 L5.72924805,9.375 L5.72924805,8.33325195 L5.72924805,8.33325195 Z M5.72924805,11.458252 L9.89599609,11.458252 L9.89599609,20.3125 L5.72924805,20.3125 L5.72924805,11.458252 Z M13.020752,2.60424805 L13.020752,22.3959961 L21.3540039,22.3959961 L21.3540039,2.60424805 L13.020752,2.60424805 Z M15.104248,20.3125 L15.104248,4.6875 L19.2709961,4.6875 L19.2709961,6.25 L15.104248,6.25 L15.104248,8.33325195 L19.2709961,8.33325195 L19.2709961,9.375 L15.104248,9.375 L15.104248,11.458252 L19.2709961,11.458252 L19.2709961,20.3125 L15.104248,20.3125 Z M6.77075195,13.020752 L8.85400391,13.020752 L8.85400391,15.1040039 L6.77075195,15.1040039 L6.77075195,13.020752 Z M6.77075195,16.145752 L8.85400391,16.145752 L8.85400391,18.2290039 L6.77075195,18.2290039 L6.77075195,16.145752 Z M16.145752,13.020752 L18.2290039,13.020752 L18.2290039,15.1040039 L16.145752,15.1040039 L16.145752,13.020752 Z M16.145752,16.145752 L18.2290039,16.145752 L18.2290039,18.2290039 L16.145752,18.2290039 L16.145752,16.145752 Z" id="形状" fill="url(#linearGradient-1)"></path>
                        </g>
                    </g>
                </g>
            </g>
        </g>
    </g>
</svg>