<?xml version="1.0" encoding="UTF-8"?>
<svg width="30px" height="30px" viewBox="0 0 30 30" version="1.1" xmlns="http://www.w3.org/2000/svg" xmlns:xlink="http://www.w3.org/1999/xlink">
    <title>机房托管</title>
    <defs>
        <linearGradient x1="50%" y1="0%" x2="50%" y2="99.4675003%" id="linearGradient-1">
            <stop stop-color="#CA2C15" offset="0%"></stop>
            <stop stop-color="#F48505" offset="100%"></stop>
        </linearGradient>
    </defs>
    <g id="页面-1" stroke="none" stroke-width="1" fill="none" fill-rule="evenodd">
        <g id="四重奏官网-首页" transform="translate(-630.000000, -1488.000000)" fill-rule="nonzero">
            <g id="服务器托管" transform="translate(0.000000, 1253.000000)">
                <g id="编组-3" transform="translate(360.000000, 208.000000)">
                    <g id="编组-17" transform="translate(240.000000, 0.000000)">
                        <g id="编组-8" transform="translate(30.000000, 26.000000)">
                            <g id="机房托管" transform="translate(0.000000, 1.000000)">
                                <rect id="矩形" fill="#000000" opacity="0" x="0" y="0" width="30" height="30"></rect>
                                <path d="M17.7272461,5.45455078 L12.2727539,5.45455078 L12.2727539,24.5454492 L17.7272461,24.5454492 L17.7272461,5.45455078 Z M19.0908984,5.45455078 L19.0908984,24.5454492 L23.8636523,24.5454492 C24.2402031,24.5454492 24.5454492,24.2401738 24.5454492,23.863623 L24.5454492,6.13637695 C24.5454492,5.75981476 24.2401852,5.45455078 23.863623,5.45455078 L19.0908984,5.45455078 L19.0908984,5.45455078 Z M10.9091016,5.45455078 L6.13634766,5.45455078 C5.7597969,5.45455078 5.45455078,5.7598262 5.45455078,6.13637695 L5.45455078,23.863623 C5.45455078,24.2401852 5.75981476,24.5454492 6.13637695,24.5454492 L10.9091016,24.5454492 L10.9091016,5.45455078 L10.9091016,5.45455078 Z M24.5454492,4.09089844 C24.9071147,4.09089844 25.2539695,4.23455827 25.5097056,4.49029438 C25.7654417,4.74603049 25.9091016,5.09288531 25.9091016,5.45455078 L25.9091016,24.5454492 C25.9091016,24.9071147 25.7654417,25.2539695 25.5097056,25.5097056 C25.2539695,25.7654417 24.9071147,25.9091016 24.5454492,25.9091016 L5.45455078,25.9091016 C5.09288531,25.9091016 4.74603049,25.7654417 4.49029438,25.5097056 C4.23455827,25.2539695 4.09089844,24.9071147 4.09089844,24.5454492 L4.09089844,5.45455078 C4.09089844,5.09288531 4.23455827,4.74603049 4.49029438,4.49029438 C4.74603049,4.23455827 5.09288531,4.09089844 5.45455078,4.09089844 L24.5454492,4.09089844 Z M8.18182617,8.86365234 C7.80526398,8.86365234 7.5,8.55838837 7.5,8.18182617 C7.5,7.80526398 7.80526398,7.5 8.18182617,7.5 C8.55663609,7.50245692 8.85918299,7.80699355 8.85918299,8.18181152 C8.85918299,8.5566295 8.55663609,8.86116612 8.18182617,8.86362305 L8.18182617,8.86365234 Z M8.18182617,10.9091016 C7.80526398,10.9091016 7.5,10.6038376 7.5,10.2272754 C7.5,9.85071319 7.80526398,9.54544922 8.18182617,9.54544922 C8.55838837,9.54544922 8.86365234,9.85071319 8.86365234,10.2272754 C8.86365234,10.6038376 8.55838837,10.9091016 8.18182617,10.9091016 L8.18182617,10.9091016 Z M8.18182617,12.9545508 C7.80526398,12.9545508 7.5,12.6492868 7.5,12.2727246 C7.5,11.8961624 7.80526398,11.5908984 8.18182617,11.5908984 C8.55838837,11.5908984 8.86365234,11.8961624 8.86365234,12.2727246 C8.86365234,12.6492868 8.55838837,12.9545508 8.18182617,12.9545508 L8.18182617,12.9545508 Z M7.5,15.6817969 L8.86362305,15.6817969 C9.24018524,15.6817969 9.54544922,15.9870609 9.54544922,16.363623 C9.54544922,16.7401852 9.24018524,17.0454492 8.86362305,17.0454492 L7.5,17.0454492 C7.12519008,17.0429923 6.82264319,16.7384557 6.82264319,16.3636377 C6.82264319,15.9888197 7.12519008,15.6842831 7.5,15.6818262 L7.5,15.6817969 Z M7.5,21.136377 L8.86362305,21.136377 C9.23843297,21.1388339 9.54097986,21.4433705 9.54097986,21.8181885 C9.54097986,22.1930065 9.23843297,22.4975431 8.86362305,22.5 L7.5,22.5 C7.12519008,22.4975431 6.82264319,22.1930065 6.82264319,21.8181885 C6.82264319,21.4433705 7.12519008,21.1388339 7.5,21.136377 L7.5,21.136377 Z M7.5,18.4091016 L8.86362305,18.4091016 C9.23843297,18.4115585 9.54097986,18.7160951 9.54097986,19.0909131 C9.54097986,19.4657311 9.23843297,19.7702677 8.86362305,19.7727246 L7.5,19.7727246 C7.12519008,19.7702677 6.82264319,19.4657311 6.82264319,19.0909131 C6.82264319,18.7160951 7.12519008,18.4115585 7.5,18.4091016 L7.5,18.4091016 Z M14.3181738,15.6818262 L15.6818262,15.6818262 C16.0566361,15.6842831 16.359183,15.9888197 16.359183,16.3636377 C16.359183,16.7384557 16.0566361,17.0429923 15.6818262,17.0454492 L14.3181738,17.0454492 C13.9433639,17.0429923 13.640817,16.7384557 13.640817,16.3636377 C13.640817,15.9888197 13.9433639,15.6842831 14.3181738,15.6818262 L14.3181738,15.6818262 Z M14.3181738,21.136377 L15.6818262,21.136377 C16.0566361,21.1388339 16.359183,21.4433705 16.359183,21.8181885 C16.359183,22.1930065 16.0566361,22.4975431 15.6818262,22.5 L14.3181738,22.5 C13.9433639,22.4975431 13.640817,22.1930065 13.640817,21.8181885 C13.640817,21.4433705 13.9433639,21.1388339 14.3181738,21.136377 L14.3181738,21.136377 Z M14.3181738,18.4091016 L15.6818262,18.4091016 C16.0566361,18.4115585 16.359183,18.7160951 16.359183,19.0909131 C16.359183,19.4657311 16.0566361,19.7702677 15.6818262,19.7727246 L14.3181738,19.7727246 C13.9433639,19.7702677 13.640817,19.4657311 13.640817,19.0909131 C13.640817,18.7160951 13.9433639,18.4115585 14.3181738,18.4091016 L14.3181738,18.4091016 Z M21.136377,15.6818262 L22.5,15.6818262 C22.8748099,15.6842831 23.1773568,15.9888197 23.1773568,16.3636377 C23.1773568,16.7384557 22.8748099,17.0429923 22.5,17.0454492 L21.136377,17.0454492 C20.761567,17.0429923 20.4590201,16.7384557 20.4590201,16.3636377 C20.4590201,15.9888197 20.761567,15.6842831 21.136377,15.6818262 L21.136377,15.6818262 Z M21.136377,21.136377 L22.5,21.136377 C22.8748099,21.1388339 23.1773568,21.4433705 23.1773568,21.8181885 C23.1773568,22.1930065 22.8748099,22.4975431 22.5,22.5 L21.136377,22.5 C20.761567,22.4975431 20.4590201,22.1930065 20.4590201,21.8181885 C20.4590201,21.4433705 20.761567,21.1388339 21.136377,21.136377 L21.136377,21.136377 Z M21.136377,18.4091016 L22.5,18.4091016 C22.8748099,18.4115585 23.1773568,18.7160951 23.1773568,19.0909131 C23.1773568,19.4657311 22.8748099,19.7702677 22.5,19.7727246 L21.136377,19.7727246 C20.761567,19.7702677 20.4590201,19.4657311 20.4590201,19.0909131 C20.4590201,18.7160951 20.761567,18.4115585 21.136377,18.4091016 L21.136377,18.4091016 Z M15,8.86362305 C14.7553474,8.86522677 14.5285898,8.73562611 14.4057982,8.524014 C14.2830066,8.31240188 14.2830066,8.05122117 14.4057982,7.83960905 C14.5285898,7.62799693 14.7553474,7.49839627 15,7.5 C15.3748099,7.50245692 15.6773568,7.80699355 15.6773568,8.18181152 C15.6773568,8.5566295 15.3748099,8.86116612 15,8.86362305 L15,8.86362305 Z M15,10.9091016 C14.6234378,10.9091016 14.3181738,10.6038376 14.3181738,10.2272754 C14.3181738,9.85071319 14.6234378,9.54544922 15,9.54544922 C15.3765622,9.54544922 15.6818262,9.85071319 15.6818262,10.2272754 C15.6818262,10.6038376 15.3765622,10.9091016 15,10.9091016 L15,10.9091016 Z M15,12.9545508 C14.6234378,12.9545508 14.3181738,12.6492868 14.3181738,12.2727246 C14.3181738,11.8961624 14.6234378,11.5908984 15,11.5908984 C15.3765622,11.5908984 15.6818262,11.8961624 15.6818262,12.2727246 C15.6818262,12.6492868 15.3765622,12.9545508 15,12.9545508 L15,12.9545508 Z M21.8181738,8.86362305 C21.5735212,8.86522677 21.3467636,8.73562611 21.223972,8.524014 C21.1011804,8.31240188 21.1011804,8.05122117 21.223972,7.83960905 C21.3467636,7.62799693 21.5735212,7.49839627 21.8181738,7.5 C22.1929837,7.50245692 22.4955306,7.80699355 22.4955306,8.18181152 C22.4955306,8.5566295 22.1929837,8.86116612 21.8181738,8.86362305 L21.8181738,8.86362305 Z M21.8181738,10.9091016 C21.4416116,10.9091016 21.1363477,10.6038376 21.1363477,10.2272754 C21.1363477,9.85071319 21.4416116,9.54544922 21.8181738,9.54544922 C22.194736,9.54544922 22.5,9.85071319 22.5,10.2272754 C22.5,10.6038376 22.194736,10.9091016 21.8181738,10.9091016 L21.8181738,10.9091016 Z M21.8181738,12.9545508 C21.4416116,12.9545508 21.1363477,12.6492868 21.1363477,12.2727246 C21.1363477,11.8961624 21.4416116,11.5908984 21.8181738,11.5908984 C22.194736,11.5908984 22.5,11.8961624 22.5,12.2727246 C22.5,12.6492868 22.194736,12.9545508 21.8181738,12.9545508 Z" id="形状" fill="url(#linearGradient-1)"></path>
                            </g>
                        </g>
                    </g>
                </g>
            </g>
        </g>
    </g>
</svg>