<?xml version="1.0" encoding="UTF-8"?>
<svg width="35px" height="35px" viewBox="0 0 35 35" version="1.1" xmlns="http://www.w3.org/2000/svg" xmlns:xlink="http://www.w3.org/1999/xlink">
    <title>域名注册</title>
    <defs>
        <linearGradient x1="50%" y1="0%" x2="50%" y2="100%" id="linearGradient-1">
            <stop stop-color="#D03912" offset="0%"></stop>
            <stop stop-color="#EC7507" offset="100%"></stop>
        </linearGradient>
        <linearGradient x1="50%" y1="0%" x2="50%" y2="100%" id="linearGradient-2">
            <stop stop-color="#D03912" offset="0%"></stop>
            <stop stop-color="#EC7507" offset="100%"></stop>
        </linearGradient>
    </defs>
    <g id="页面-1" stroke="none" stroke-width="1" fill="none" fill-rule="evenodd">
        <g id="四重奏官网-首页" transform="translate(-388.000000, -3262.000000)" fill-rule="nonzero">
            <g id="企业应用" transform="translate(0.000000, 3016.000000)">
                <g id="编组-3" transform="translate(360.000000, 209.000000)">
                    <g id="域名注册" transform="translate(28.000000, 37.000000)">
                        <rect id="矩形" fill="#000000" opacity="0" x="0" y="0" width="35" height="35"></rect>
                        <path d="M17.5,33.6875 C11.15625,33.6875 5.25,29.96875 2.625,24.0625 C2.40625,23.625 2.625,22.96875 3.0625,22.75 C3.5,22.53125 4.15625,22.75 4.375,23.1875 C6.5625,28.4375 11.8125,31.71875 17.28125,31.71875 C22.96875,31.71875 28,28.4375 30.1875,23.1875 C30.40625,22.75 31.0625,22.53125 31.5,22.75 C31.9375,22.96875 32.15625,23.625 31.9375,24.0625 C29.75,29.96875 23.84375,33.6875 17.5,33.6875 Z M3.5,12.6875 L3.0625,12.6875 C2.625,12.25 2.40625,11.8125 2.625,11.15625 C5.03125,5.25 10.9375,1.3125 17.5,1.3125 C24.0625,1.3125 29.75,5.25 32.375,11.15625 C32.59375,11.59375 32.375,12.25 31.9375,12.46875 C31.5,12.6875 30.84375,12.46875 30.625,12.03125 C28.4375,6.78125 23.1875,3.5 17.5,3.5 C11.8125,3.5 6.78125,7 4.375,12.25 C4.375,12.46875 3.9375,12.6875 3.5,12.6875 Z" id="形状" fill="url(#linearGradient-1)"></path>
                        <path d="M2.40625,21.4375 L0,12.46875 L1.3125,12.46875 L2.625,18.375 C2.625,19.03125 2.84375,19.6875 2.84375,20.125 C3.0625,19.25 3.28125,18.59375 3.28125,18.375 L5.03125,12.25 L6.5625,12.25 L7.875,16.84375 C8.09375,17.9375 8.53125,19.03125 8.53125,19.90625 C8.53125,19.6875 8.75,19.03125 8.96875,18.15625 L10.28125,12.46875 L11.375,12.46875 L8.96875,21.4375 L7.875,21.4375 L5.90625,14.65625 C5.90625,14 5.6875,13.78125 5.6875,13.5625 C5.6875,14 5.46875,14.21875 5.46875,14.65625 L3.5,21.4375 L2.40625,21.4375 Z M14.21875,21.4375 L11.8125,12.46875 L13.125,12.46875 L14.4375,18.375 C14.4375,19.03125 14.65625,19.6875 14.65625,20.125 C14.875,19.25 15.09375,18.59375 15.09375,18.375 L16.84375,12.25 L18.375,12.25 L19.6875,16.84375 C19.90625,17.9375 20.34375,19.03125 20.34375,19.90625 C20.34375,19.6875 20.5625,19.03125 20.5625,18.15625 L21.875,12.46875 L22.96875,12.46875 L20.78125,21.4375 L19.6875,21.4375 L17.71875,14.65625 C17.71875,14 17.5,13.78125 17.5,13.5625 C17.5,14 17.28125,14.21875 17.28125,14.65625 L15.3125,21.4375 L14.21875,21.4375 Z M25.8125,21.4375 L23.40625,12.46875 L24.71875,12.46875 L26.03125,18.375 C26.25,19.03125 26.46875,19.6875 26.46875,20.125 C26.6875,19.25 26.90625,18.59375 26.90625,18.375 L28.65625,12.25 L30.1875,12.25 L31.5,16.84375 C31.71875,17.9375 32.15625,19.03125 32.15625,19.90625 C32.375,19.25 32.375,18.59375 32.59375,17.9375 L33.90625,12.25 L35,12.25 L32.59375,21.21875 L31.5,21.21875 L29.53125,14.4375 C29.3125,13.78125 29.3125,13.5625 29.3125,13.34375 C29.3125,13.78125 29.09375,14 29.09375,14.4375 L27.125,21.21875 L25.8125,21.21875 L25.8125,21.4375 Z" id="形状" fill="url(#linearGradient-2)"></path>
                    </g>
                </g>
            </g>
        </g>
    </g>
</svg>