<?xml version="1.0" encoding="UTF-8"?>
<svg width="35px" height="35px" viewBox="0 0 35 35" version="1.1" xmlns="http://www.w3.org/2000/svg" xmlns:xlink="http://www.w3.org/1999/xlink">
    <title>建站主机</title>
    <defs>
        <linearGradient x1="50%" y1="0%" x2="50%" y2="100%" id="linearGradient-1">
            <stop stop-color="#D03912" offset="0%"></stop>
            <stop stop-color="#EC7507" offset="100%"></stop>
        </linearGradient>
        <linearGradient x1="50%" y1="0%" x2="50%" y2="100%" id="linearGradient-2">
            <stop stop-color="#D03912" offset="0%"></stop>
            <stop stop-color="#EC7507" offset="100%"></stop>
        </linearGradient>
        <linearGradient x1="50%" y1="0%" x2="50%" y2="100%" id="linearGradient-3">
            <stop stop-color="#D03912" offset="0%"></stop>
            <stop stop-color="#EC7507" offset="100%"></stop>
        </linearGradient>
    </defs>
    <g id="页面-1" stroke="none" stroke-width="1" fill="none" fill-rule="evenodd">
        <g id="四重奏官网-首页" transform="translate(-795.000000, -3265.000000)" fill-rule="nonzero">
            <g id="企业应用" transform="translate(0.000000, 3016.000000)">
                <g id="编组-3备份-4" transform="translate(765.000000, 209.000000)">
                    <g id="编组-8" transform="translate(30.000000, 39.000000)">
                        <g id="建站主机" transform="translate(0.000000, 1.000000)">
                            <rect id="矩形" fill="#000000" opacity="0" x="0" y="0" width="35" height="35"></rect>
                            <g id="编组-11" transform="translate(3.000000, 3.000000)">
                                <path d="M14.7269231,29.4269231 L2.34230769,29.4269231 C1.05,29.4269231 -4.09928501e-15,28.3769231 -4.09928501e-15,27.0846154 L-4.09928501e-15,2.34230769 C-4.09928501e-15,1.05 1.05,-1.27077835e-13 2.34230769,-1.27077835e-13 L27.1115385,-1.27077835e-13 C28.4038462,-1.27077835e-13 29.4538462,1.05 29.4538462,2.34230769 L29.4538462,14.7269231 C29.4538462,15.1846154 29.1038462,15.5346154 28.6461539,15.5346154 C28.1884616,15.5346154 27.8384616,15.1846154 27.8384616,14.7269231 L27.8384616,2.34230769 C27.8384616,1.96538463 27.4884616,1.61538462 27.1115385,1.61538462 L2.34230769,1.61538462 C1.96538463,1.61538462 1.61538462,1.96538463 1.61538462,2.34230769 L1.61538462,27.0846154 C1.61538462,27.4615385 1.96538463,27.8115385 2.34230769,27.8115385 L14.7269231,27.8115385 C15.1846154,27.8115385 15.5346154,28.1615385 15.5346154,28.6192308 C15.5346154,29.0769231 15.1846154,29.4269231 14.7269231,29.4269231 Z" id="路径" fill="url(#linearGradient-1)"></path>
                                <path d="M28.6192308,10.6615385 L0.834615398,10.6615385 C0.376923103,10.6615385 0.0269230901,10.3115384 0.0269230901,9.85384615 C0.0269230901,9.39615386 0.376923103,9.04615385 0.834615398,9.04615385 L28.6192308,9.04615385 C29.0769231,9.04615385 29.4269231,9.39615386 29.4269231,9.85384615 C29.4269231,10.3115384 29.0769231,10.6615385 28.6192308,10.6615385 Z M14.7269231,19.7884615 L0.834615398,19.7884615 C0.376923103,19.7884615 0.0269230901,19.4384615 0.0269230901,18.9807692 C0.0269230901,18.5230769 0.376923103,18.1730769 0.834615398,18.1730769 L14.7269231,18.1730769 C15.1846154,18.1730769 15.5346154,18.5230769 15.5346154,18.9807692 C15.5346154,19.4384615 15.1846154,19.7884615 14.7269231,19.7884615 Z M7.45769232,24.8230769 L4.33461541,24.8230769 C3.87692312,24.8230769 3.5269231,24.4730769 3.5269231,24.0153846 C3.5269231,23.5576923 3.87692312,23.2076923 4.33461541,23.2076923 L7.45769232,23.2076923 C7.91538462,23.2076923 8.26538463,23.5576923 8.26538463,24.0153846 C8.26538463,24.4730769 7.91538462,24.8230769 7.45769232,24.8230769 Z M7.45769232,15.5346154 L4.33461541,15.5346154 C3.87692312,15.5346154 3.5269231,15.1846154 3.5269231,14.7269231 C3.5269231,14.2692308 3.87692312,13.9192308 4.33461541,13.9192308 L7.45769232,13.9192308 C7.91538462,13.9192308 8.26538463,14.2692308 8.26538463,14.7269231 C8.26538463,15.1846154 7.91538462,15.5346154 7.45769232,15.5346154 Z M7.45769232,6.46153846 L4.33461541,6.46153846 C3.87692312,6.46153846 3.5269231,6.11153845 3.5269231,5.65384615 C3.5269231,5.19615386 3.87692312,4.84615385 4.33461541,4.84615385 L7.45769232,4.84615385 C7.91538462,4.84615385 8.26538463,5.19615386 8.26538463,5.65384615 C8.26538463,6.11153845 7.91538462,6.46153846 7.45769232,6.46153846 Z M28.6192308,22.4807692 L14.7269231,22.4807692 C14.2692308,22.4807692 13.9192308,22.1307692 13.9192308,21.6730769 C13.9192308,21.2153846 14.2692308,20.8653846 14.7269231,20.8653846 L28.6192308,20.8653846 C29.0769231,20.8653846 29.4269231,21.2153846 29.4269231,21.6730769 C29.4269231,22.1307692 29.0769231,22.4807692 28.6192308,22.4807692 Z" id="形状" fill="url(#linearGradient-2)"></path>
                                <path d="M21.6730769,29.4269231 C21.2153846,29.4269231 20.8653846,29.0769231 20.8653846,28.6192308 L20.8653846,14.7269231 C20.8653846,14.2692308 21.2153846,13.9192308 21.6730769,13.9192308 C22.1307692,13.9192308 22.4807692,14.2692308 22.4807692,14.7269231 L22.4807692,28.6192308 C22.4807692,29.0769231 22.1307692,29.4269231 21.6730769,29.4269231 Z" id="路径" fill="url(#linearGradient-3)"></path>
                            </g>
                        </g>
                    </g>
                </g>
            </g>
        </g>
    </g>
</svg>