<?xml version="1.0" encoding="UTF-8"?>
<svg width="35px" height="35px" viewBox="0 0 35 35" version="1.1" xmlns="http://www.w3.org/2000/svg" xmlns:xlink="http://www.w3.org/1999/xlink">
    <title>邮件营销</title>
    <defs>
        <linearGradient x1="50%" y1="0%" x2="50%" y2="100%" id="linearGradient-1">
            <stop stop-color="#D03912" offset="0%"></stop>
            <stop stop-color="#EC7507" offset="100%"></stop>
        </linearGradient>
        <linearGradient x1="50%" y1="0%" x2="50%" y2="100%" id="linearGradient-2">
            <stop stop-color="#D03912" offset="0%"></stop>
            <stop stop-color="#EC7507" offset="100%"></stop>
        </linearGradient>
        <linearGradient x1="50%" y1="0%" x2="50%" y2="100%" id="linearGradient-3">
            <stop stop-color="#D03912" offset="0%"></stop>
            <stop stop-color="#EC7507" offset="100%"></stop>
        </linearGradient>
    </defs>
    <g id="页面-1" stroke="none" stroke-width="1" fill="none" fill-rule="evenodd">
        <g id="四重奏官网-首页" transform="translate(-793.000000, -3542.000000)" fill-rule="nonzero">
            <g id="企业应用" transform="translate(0.000000, 3016.000000)">
                <g id="编组-3备份-10" transform="translate(765.000000, 489.000000)">
                    <g id="邮件营销" transform="translate(28.000000, 37.000000)">
                        <rect id="矩形" fill="#000000" opacity="0" x="0" y="0" width="35" height="35"></rect>
                        <path d="M17.5,29.9833333 L4.375,29.9833333 C2.625,29.9833333 1.16666666,28.525 1.16666666,26.775 L1.16666666,8.225 C1.16666666,6.475 2.625,5.01666666 4.375,5.01666666 L30.625,5.01666666 C32.375,5.01666666 33.8333333,6.475 33.8333333,8.225 L33.8333333,17.5 C33.8333333,17.9666667 33.425,18.375 32.9583333,18.375 C32.4916667,18.375 32.0833333,17.9666667 32.0833333,17.5 L32.0833333,8.225 C32.0833333,7.40833334 31.4416667,6.76666666 30.625,6.76666666 L4.375,6.76666666 C3.55833334,6.76666666 2.91666666,7.40833331 2.91666666,8.225 L2.91666666,26.775 C2.91666666,27.5916667 3.55833331,28.2333333 4.375,28.2333333 L17.5,28.2333333 C17.9666667,28.2333333 18.375,28.6416667 18.375,29.1083333 C18.375,29.575 17.9666667,29.9833333 17.5,29.9833333 Z" id="路径" fill="url(#linearGradient-1)"></path>
                        <path d="M32.9583333,26.1333333 L22.1666667,26.1333333 C21.7,26.1333333 21.2916667,25.725 21.2916667,25.2583333 C21.2916667,24.7916667 21.7,24.3833333 22.1666667,24.3833333 L32.9583333,24.3833333 C33.425,24.3833333 33.8333333,24.7916667 33.8333333,25.2583333 C33.8333333,25.725 33.425,26.1333333 32.9583333,26.1333333 Z" id="路径" fill="url(#linearGradient-2)"></path>
                        <path d="M29.1083333,29.9833333 C28.875,29.9833333 28.6416667,29.925 28.4666667,29.75 C28.1166667,29.4 28.1166667,28.875 28.4666667,28.525 L31.7333333,25.2583333 L28.4666667,21.9916667 C28.1166667,21.6416667 28.1166667,21.1166667 28.4666667,20.7666667 C28.8166667,20.4166667 29.3416667,20.4166667 29.6916667,20.7666667 L33.5416667,24.6166667 C33.8916667,24.9666667 33.8916667,25.4916667 33.5416667,25.8416667 L29.6916667,29.6916667 C29.5166667,29.8666667 29.3416667,29.9833333 29.1083333,29.9833333 L29.1083333,29.9833333 Z M17.5,18.6083333 C17.325,18.6083333 17.15,18.55 16.975,18.4333333 L2.39166666,7.46666666 C1.98333331,7.175 1.925,6.65 2.21666666,6.24166666 C2.50833331,5.83333331 3.03333331,5.775 3.44166666,6.06666666 L17.5,16.6833333 L31.5583333,6.125 C31.9666667,5.83333334 32.4916667,5.89166666 32.7833333,6.3 C33.075,6.70833334 33.0166667,7.23333334 32.6083333,7.525 L18.025,18.4916667 C17.85,18.55 17.675,18.6083333 17.5,18.6083333 Z" id="形状" fill="url(#linearGradient-3)"></path>
                    </g>
                </g>
            </g>
        </g>
    </g>
</svg>